<svg xmlns="http://www.w3.org/2000/svg" xmlns:xlink="http://www.w3.org/1999/xlink" width="2000" zoomAndPan="magnify" viewBox="0 0 1500 1499.999933" height="2000" preserveAspectRatio="xMidYMid meet" version="1.0"><defs><g/></defs><path fill="#111111" d="M 375.183594 -0.183594 C 168.089844 -0.183594 0.183594 167.722656 0.183594 374.816406 L 0.183594 1124.816406 C 0.183594 1331.910156 168.089844 1499.816406 375.183594 1499.816406 L 1125.183594 1499.816406 C 1332.277344 1499.816406 1500.183594 1331.910156 1500.183594 1124.816406 L 1500.183594 374.816406 C 1500.183594 167.722656 1332.277344 -0.183594 1125.183594 -0.183594 Z M 375.183594 -0.183594 " fill-opacity="1" fill-rule="nonzero"/><g fill="#ececec" fill-opacity="1"><g transform="translate(112.209319, 862.124906)"><g><path d="M 14.8125 0 L 14.8125 -166.828125 L 75.546875 -166.828125 L 75.546875 0 Z M 45.1875 -182.53125 C 36.625 -182.53125 29.394531 -185.273438 23.5 -190.765625 C 17.613281 -196.265625 14.671875 -202.890625 14.671875 -210.640625 C 14.671875 -218.597656 17.613281 -225.269531 23.5 -230.65625 C 29.394531 -236.050781 36.625 -238.75 45.1875 -238.75 C 53.644531 -238.75 60.820312 -236.050781 66.71875 -230.65625 C 72.613281 -225.269531 75.5625 -218.597656 75.5625 -210.640625 C 75.5625 -202.785156 72.613281 -196.132812 66.71875 -190.6875 C 60.820312 -185.25 53.644531 -182.53125 45.1875 -182.53125 Z M 45.1875 -182.53125 "/></g></g></g><g fill="#ececec" fill-opacity="1"><g transform="translate(194.836055, 862.124906)"><g><path d="M 14.8125 0 L 14.8125 -166.828125 L 70.875 -166.828125 L 73.890625 -122.703125 L 70.109375 -122.703125 C 72.828125 -133.878906 76.78125 -142.867188 81.96875 -149.671875 C 87.164062 -156.472656 93.265625 -161.429688 100.265625 -164.546875 C 107.265625 -167.671875 114.640625 -169.234375 122.390625 -169.234375 C 134.378906 -169.234375 144.253906 -165.40625 152.015625 -157.75 C 159.773438 -150.09375 165.664062 -137.203125 169.6875 -119.078125 L 163.5 -119.078125 C 166.113281 -131.160156 170.367188 -140.90625 176.265625 -148.3125 C 182.160156 -155.71875 189.035156 -161.054688 196.890625 -164.328125 C 204.753906 -167.597656 212.863281 -169.234375 221.21875 -169.234375 C 232 -169.234375 241.46875 -166.890625 249.625 -162.203125 C 257.789062 -157.523438 264.164062 -150.929688 268.75 -142.421875 C 273.332031 -133.910156 275.625 -123.859375 275.625 -112.265625 L 275.625 0 L 214.875 0 L 214.875 -97.015625 C 214.875 -104.265625 213.007812 -110.003906 209.28125 -114.234375 C 205.550781 -118.460938 200.566406 -120.578125 194.328125 -120.578125 C 190.191406 -120.578125 186.613281 -119.617188 183.59375 -117.703125 C 180.570312 -115.796875 178.253906 -113.101562 176.640625 -109.625 C 175.035156 -106.15625 174.234375 -101.953125 174.234375 -97.015625 L 174.234375 0 L 116.359375 0 L 116.359375 -97.015625 C 116.359375 -104.367188 114.492188 -110.132812 110.765625 -114.3125 C 107.035156 -118.488281 102.046875 -120.578125 95.796875 -120.578125 C 91.566406 -120.578125 87.941406 -119.617188 84.921875 -117.703125 C 81.898438 -115.796875 79.582031 -113.101562 77.96875 -109.625 C 76.351562 -106.15625 75.546875 -101.953125 75.546875 -97.015625 L 75.546875 0 Z M 14.8125 0 "/></g></g></g><g fill="#ececec" fill-opacity="1"><g transform="translate(477.531926, 862.124906)"><g><path d="M 95.953125 66.484375 C 80.035156 66.484375 66.304688 64.441406 54.765625 60.359375 C 43.234375 56.285156 34.09375 50.570312 27.34375 43.21875 C 20.59375 35.863281 16.414062 27.300781 14.8125 17.53125 L 69.0625 11.328125 C 69.664062 14.253906 71.125 16.773438 73.4375 18.890625 C 75.75 21.003906 78.796875 22.640625 82.578125 23.796875 C 86.359375 24.953125 90.765625 25.53125 95.796875 25.53125 C 105.265625 25.53125 112.34375 23.3125 117.03125 18.875 C 121.71875 14.445312 124.0625 7.703125 124.0625 -1.359375 L 124.0625 -29.15625 L 120.578125 -29.15625 C 118.460938 -23.320312 115.316406 -18.390625 111.140625 -14.359375 C 106.960938 -10.328125 101.898438 -7.273438 95.953125 -5.203125 C 90.003906 -3.140625 83.304688 -2.109375 75.859375 -2.109375 C 63.460938 -2.109375 52.203125 -5.054688 42.078125 -10.953125 C 31.953125 -16.847656 23.867188 -25.835938 17.828125 -37.921875 C 11.785156 -50.015625 8.765625 -65.28125 8.765625 -83.71875 C 8.765625 -103.15625 11.910156 -119.195312 18.203125 -131.84375 C 24.503906 -144.488281 32.71875 -153.878906 42.84375 -160.015625 C 52.96875 -166.160156 63.867188 -169.234375 75.546875 -169.234375 C 83.503906 -169.234375 90.582031 -167.898438 96.78125 -165.234375 C 102.976562 -162.566406 108.265625 -158.941406 112.640625 -154.359375 C 117.023438 -149.773438 120.425781 -144.660156 122.84375 -139.015625 L 123.75 -139.015625 L 123.75 -166.828125 L 183.890625 -166.828125 L 183.890625 -7.5625 C 183.890625 8.757812 180.289062 22.410156 173.09375 33.390625 C 165.894531 44.367188 155.71875 52.628906 142.5625 58.171875 C 129.414062 63.710938 113.878906 66.484375 95.953125 66.484375 Z M 97.3125 -46.09375 C 102.851562 -46.09375 107.640625 -47.601562 111.671875 -50.625 C 115.703125 -53.644531 118.847656 -58 121.109375 -63.6875 C 123.378906 -69.382812 124.515625 -76.160156 124.515625 -84.015625 C 124.515625 -92.078125 123.378906 -99.003906 121.109375 -104.796875 C 118.847656 -110.585938 115.703125 -115.039062 111.671875 -118.15625 C 107.640625 -121.28125 102.851562 -122.84375 97.3125 -122.84375 C 91.769531 -122.84375 87.035156 -121.28125 83.109375 -118.15625 C 79.179688 -115.039062 76.179688 -110.585938 74.109375 -104.796875 C 72.046875 -99.003906 71.015625 -92.078125 71.015625 -84.015625 C 71.015625 -76.054688 72.046875 -69.226562 74.109375 -63.53125 C 76.179688 -57.84375 79.179688 -53.515625 83.109375 -50.546875 C 87.035156 -47.578125 91.769531 -46.09375 97.3125 -46.09375 Z M 97.3125 -46.09375 "/></g></g></g><g fill="#4d9eff" fill-opacity="1"><g transform="translate(668.662396, 862.124906)"><g><path d="M 14.8125 63.15625 L 14.8125 -166.828125 L 74.953125 -166.828125 L 74.953125 -139.328125 L 76.3125 -139.328125 C 78.726562 -144.960938 82.050781 -150.046875 86.28125 -154.578125 C 90.507812 -159.117188 95.695312 -162.695312 101.84375 -165.3125 C 107.988281 -167.925781 115.09375 -169.234375 123.15625 -169.234375 C 134.84375 -169.234375 145.695312 -166.160156 155.71875 -160.015625 C 165.738281 -153.878906 173.867188 -144.460938 180.109375 -131.765625 C 186.359375 -119.066406 189.484375 -102.945312 189.484375 -83.40625 C 189.484375 -64.46875 186.507812 -48.625 180.5625 -35.875 C 174.625 -23.132812 166.59375 -13.566406 156.46875 -7.171875 C 146.34375 -0.773438 135.035156 2.421875 122.546875 2.421875 C 114.785156 2.421875 107.882812 1.160156 101.84375 -1.359375 C 95.800781 -3.878906 90.640625 -7.328125 86.359375 -11.703125 C 82.078125 -16.085938 78.773438 -21.148438 76.453125 -26.890625 L 75.546875 -26.890625 L 75.546875 63.15625 Z M 101.09375 -44.28125 C 106.726562 -44.28125 111.484375 -45.835938 115.359375 -48.953125 C 119.242188 -52.078125 122.191406 -56.585938 124.203125 -62.484375 C 126.222656 -68.378906 127.234375 -75.351562 127.234375 -83.40625 C 127.234375 -91.570312 126.222656 -98.578125 124.203125 -104.421875 C 122.191406 -110.265625 119.242188 -114.769531 115.359375 -117.9375 C 111.484375 -121.113281 106.726562 -122.703125 101.09375 -122.703125 C 95.550781 -122.703125 90.738281 -121.113281 86.65625 -117.9375 C 82.582031 -114.769531 79.4375 -110.265625 77.21875 -104.421875 C 75 -98.578125 73.890625 -91.570312 73.890625 -83.40625 C 73.890625 -75.445312 75 -68.546875 77.21875 -62.703125 C 79.4375 -56.867188 82.582031 -52.335938 86.65625 -49.109375 C 90.738281 -45.890625 95.550781 -44.28125 101.09375 -44.28125 Z M 101.09375 -44.28125 "/></g></g></g><g fill="#4d9eff" fill-opacity="1"><g transform="translate(862.354687, 862.124906)"><g><path d="M 62.40625 2.71875 C 51.625 2.71875 42.101562 0.957031 33.84375 -2.5625 C 25.582031 -6.09375 19.132812 -11.457031 14.5 -18.65625 C 9.875 -25.863281 7.5625 -34.957031 7.5625 -45.9375 C 7.5625 -55.207031 9.117188 -63.066406 12.234375 -69.515625 C 15.359375 -75.960938 19.738281 -81.25 25.375 -85.375 C 31.019531 -89.507812 37.59375 -92.679688 45.09375 -94.890625 C 52.601562 -97.109375 60.691406 -98.519531 69.359375 -99.125 C 78.828125 -99.832031 86.40625 -100.6875 92.09375 -101.6875 C 97.789062 -102.695312 101.921875 -104.179688 104.484375 -106.140625 C 107.054688 -108.109375 108.34375 -110.65625 108.34375 -113.78125 L 108.34375 -114.390625 C 108.34375 -117.210938 107.5625 -119.578125 106 -121.484375 C 104.4375 -123.398438 102.269531 -124.882812 99.5 -125.9375 C 96.726562 -127 93.378906 -127.53125 89.453125 -127.53125 C 85.628906 -127.53125 82.179688 -126.972656 79.109375 -125.859375 C 76.035156 -124.753906 73.515625 -123.09375 71.546875 -120.875 C 69.585938 -118.664062 68.304688 -115.898438 67.703125 -112.578125 L 12.84375 -116.8125 C 14.25 -126.882812 18.050781 -135.875 24.25 -143.78125 C 30.445312 -151.6875 39.085938 -157.90625 50.171875 -162.4375 C 61.253906 -166.96875 74.753906 -169.234375 90.671875 -169.234375 C 102.753906 -169.234375 113.628906 -167.875 123.296875 -165.15625 C 132.972656 -162.4375 141.1875 -158.582031 147.9375 -153.59375 C 154.6875 -148.613281 159.847656 -142.75 163.421875 -136 C 166.992188 -129.25 168.78125 -121.84375 168.78125 -113.78125 L 168.78125 0 L 111.515625 0 L 111.515625 -23.578125 L 110.453125 -23.578125 C 107.035156 -17.222656 102.957031 -12.128906 98.21875 -8.296875 C 93.488281 -4.472656 88.148438 -1.679688 82.203125 0.078125 C 76.253906 1.835938 69.65625 2.71875 62.40625 2.71875 Z M 82.046875 -35.515625 C 86.578125 -35.515625 90.882812 -36.441406 94.96875 -38.296875 C 99.050781 -40.160156 102.398438 -42.832031 105.015625 -46.3125 C 107.640625 -49.789062 108.953125 -54.046875 108.953125 -59.078125 L 108.953125 -72.6875 C 107.335938 -72.175781 105.648438 -71.617188 103.890625 -71.015625 C 102.128906 -70.410156 100.210938 -69.859375 98.140625 -69.359375 C 96.078125 -68.859375 93.960938 -68.40625 91.796875 -68 C 89.628906 -67.59375 87.285156 -67.191406 84.765625 -66.796875 C 80.140625 -66.085938 76.335938 -64.925781 73.359375 -63.3125 C 70.390625 -61.695312 68.171875 -59.734375 66.703125 -57.421875 C 65.242188 -55.109375 64.515625 -52.488281 64.515625 -49.5625 C 64.515625 -46.539062 65.269531 -43.972656 66.78125 -41.859375 C 68.300781 -39.742188 70.367188 -38.15625 72.984375 -37.09375 C 75.597656 -36.039062 78.617188 -35.515625 82.046875 -35.515625 Z M 82.046875 -35.515625 "/></g></g></g><g fill="#4d9eff" fill-opacity="1"><g transform="translate(1038.367162, 862.124906)"><g><path d="M 95.65625 3.171875 C 77.625 3.171875 62.109375 -0.453125 49.109375 -7.703125 C 36.109375 -14.960938 26.132812 -25.035156 19.1875 -37.921875 C 12.238281 -50.816406 8.765625 -65.878906 8.765625 -83.109375 C 8.765625 -100.234375 12.238281 -115.265625 19.1875 -128.203125 C 26.132812 -141.148438 36.109375 -151.222656 49.109375 -158.421875 C 62.109375 -165.628906 77.625 -169.234375 95.65625 -169.234375 C 107.34375 -169.234375 117.96875 -167.695312 127.53125 -164.625 C 137.101562 -161.550781 145.414062 -157.144531 152.46875 -151.40625 C 159.519531 -145.664062 165.109375 -138.789062 169.234375 -130.78125 C 173.367188 -122.769531 175.835938 -113.78125 176.640625 -103.8125 L 120.578125 -97.3125 C 119.878906 -101.539062 118.875 -105.289062 117.5625 -108.5625 C 116.25 -111.84375 114.609375 -114.613281 112.640625 -116.875 C 110.679688 -119.144531 108.367188 -120.832031 105.703125 -121.9375 C 103.035156 -123.050781 100.035156 -123.609375 96.703125 -123.609375 C 91.367188 -123.609375 86.734375 -122.117188 82.796875 -119.140625 C 78.867188 -116.171875 75.847656 -111.6875 73.734375 -105.6875 C 71.617188 -99.695312 70.5625 -92.222656 70.5625 -83.265625 C 70.5625 -74.492188 71.617188 -67.0625 73.734375 -60.96875 C 75.847656 -54.875 78.867188 -50.265625 82.796875 -47.140625 C 86.734375 -44.023438 91.367188 -42.46875 96.703125 -42.46875 C 100.035156 -42.46875 103.035156 -43.070312 105.703125 -44.28125 C 108.367188 -45.488281 110.707031 -47.222656 112.71875 -49.484375 C 114.738281 -51.753906 116.398438 -54.597656 117.703125 -58.015625 C 119.015625 -61.441406 119.972656 -65.320312 120.578125 -69.65625 L 176.640625 -63.3125 C 175.941406 -53.132812 173.523438 -43.988281 169.390625 -35.875 C 165.265625 -27.769531 159.695312 -20.796875 152.6875 -14.953125 C 145.6875 -9.117188 137.375 -4.640625 127.75 -1.515625 C 118.132812 1.609375 107.4375 3.171875 95.65625 3.171875 Z M 95.65625 3.171875 "/></g></g></g><g fill="#4d9eff" fill-opacity="1"><g transform="translate(1215.890714, 862.124906)"><g><path d="M 116.203125 -166.828125 L 116.203125 -122.390625 L 3.015625 -122.390625 L 3.015625 -166.828125 Z M 25.6875 -207.765625 L 86.4375 -207.765625 L 86.4375 -55.15625 C 86.4375 -51.320312 87.34375 -48.523438 89.15625 -46.765625 C 90.96875 -45.003906 94.039062 -44.125 98.375 -44.125 C 100.382812 -44.125 103.203125 -44.300781 106.828125 -44.65625 C 110.453125 -45.007812 112.875 -45.335938 114.09375 -45.640625 L 119.828125 -1.8125 C 113.785156 -0.300781 107.664062 0.703125 101.46875 1.203125 C 95.269531 1.710938 89.300781 1.96875 83.5625 1.96875 C 64.21875 1.96875 49.734375 -2.234375 40.109375 -10.640625 C 30.492188 -19.054688 25.6875 -31.675781 25.6875 -48.5 Z M 25.6875 -207.765625 "/></g></g></g></svg>